<?xml version="1.0" encoding="utf-8"?>
<!-- Generator: Adobe Illustrator 24.1.1, SVG Export Plug-In . SVG Version: 6.00 Build 0)  -->
<svg version="1.1" id="Layer_1" xmlns="http://www.w3.org/2000/svg" xmlns:xlink="http://www.w3.org/1999/xlink" x="0px" y="0px"
	 viewBox="0 0 512 512" style="enable-background:new 0 0 512 512;" xml:space="preserve">
<style type="text/css">
	.st0{fill:#333333;}
</style>
<g id="XMLID_2_">
	<path id="XMLID_6_" class="st0" d="M306.5,256c0,4.5-1.8,8.1-5.4,11.7L62.2,506.6c-3.6,3.6-7.2,5.4-11.7,5.4s-8.1-1.8-11.7-5.4
		l-25.2-25.2c-3.6-3.6-5.4-7.2-5.4-11.7s1.8-8.1,5.4-11.7l201-201.9L13.5,54.1c-3.6-3.6-5.4-7.2-5.4-11.7s1.8-8.1,5.4-11.7L38.8,5.4
		C42.4,1.8,46,0,50.5,0s8.1,1.8,11.7,5.4l238.9,238.9C304.7,247.9,306.5,251.5,306.5,256z M503.9,256c0,4.5-1.8,8.1-5.4,11.7
		L259.6,506.6c-3.6,3.6-7.2,5.4-11.7,5.4s-8.1-1.8-11.7-5.4L210,481.4c-3.6-3.6-5.4-7.2-5.4-11.7s1.8-8.1,5.4-11.7L411.9,256
		L210,54.1c-3.6-3.6-5.4-7.2-5.4-11.7s1.8-8.1,5.4-11.7l25.2-25.2C238.9,1.8,242.5,0,247,0c4.5,0,8.1,1.8,11.7,5.4l238.9,238.9
		C502.1,247.9,503.9,251.5,503.9,256z"/>
</g>
</svg>
