<svg width="184" height="53" viewBox="0 0 184 53" fill="none" xmlns="http://www.w3.org/2000/svg">
<g clip-path="url(#clip0_4214_4431)">
<path fill-rule="evenodd" clip-rule="evenodd" d="M6.46027 35.7406C4.671 35.7406 3.14674 35.1122 1.88841 33.8543C0.629163 32.5974 0 31.0746 0 29.288V0H5.36688V28.5423C5.36688 29.2704 5.48363 29.7669 5.71528 30.0309C5.98029 30.2634 6.47787 30.3788 7.20618 30.3788H28.5245C29.2862 30.3788 29.7838 30.2634 30.0154 30.0309C30.2471 29.7669 30.3638 29.2695 30.3638 28.5423V0H35.7807V29.2871C35.7807 31.0737 35.1349 32.5964 33.8423 33.8534C32.584 35.1112 31.0764 35.7397 29.3205 35.7397H6.46027V35.7406Z" fill="white"/>
<path fill-rule="evenodd" clip-rule="evenodd" d="M47.7129 35.7406V0H54.1231L67.9879 16.4805L81.8026 0H88.2619V35.7406H82.8459V7.19741L67.9879 24.8693L53.0788 7.19741V35.7406H47.7129Z" fill="white"/>
<path fill-rule="evenodd" clip-rule="evenodd" d="M107.629 14.8424H127.506C128.235 14.8424 128.715 14.7261 128.946 14.4954C129.179 14.2305 129.295 13.734 129.295 13.0059V7.19833C129.295 6.47019 129.179 5.9903 128.946 5.75866C128.715 5.4938 128.235 5.36183 127.506 5.36183H107.629C106.9 5.36183 106.403 5.4938 106.138 5.75866C105.906 5.9903 105.79 6.47019 105.79 7.19833V13.0059C105.79 13.734 105.906 14.2305 106.138 14.4954C106.403 14.727 106.9 14.8424 107.629 14.8424ZM107.629 30.3797H128.947C129.676 30.3797 130.157 30.2644 130.389 30.0318C130.653 29.7679 130.787 29.2704 130.787 28.5432V22.0407C130.787 21.3126 130.654 20.8327 130.389 20.6011C130.157 20.3362 129.677 20.2042 128.947 20.2042H107.629C106.9 20.2042 106.403 20.3362 106.138 20.6011C105.906 20.8327 105.79 21.3126 105.79 22.0407V28.5432C105.79 29.2714 105.906 29.7679 106.138 30.0318C106.403 30.2644 106.9 30.3797 107.629 30.3797ZM100.424 35.7406V0H128.252C130.041 0 131.565 0.62847 132.823 1.88633C134.083 3.14327 134.712 4.66599 134.712 6.45266V13.7497C134.712 14.1807 134.662 14.6098 134.564 15.0399C134.497 15.4699 134.364 15.8677 134.166 16.2313C134.829 17.1579 135.325 18.0189 135.657 18.8126C136.021 19.6062 136.204 20.4349 136.204 21.2941V29.2861C136.204 31.0728 135.558 32.5955 134.266 33.8525C133.007 35.1103 131.484 35.7388 129.694 35.7388H100.425L100.424 35.7406Z" fill="white"/>
<path fill-rule="evenodd" clip-rule="evenodd" d="M154.541 35.7407C152.753 35.7407 151.228 35.1122 149.97 33.8543C148.711 32.5974 148.081 31.0747 148.081 29.288V6.45363C148.081 4.66697 148.711 3.14425 149.97 1.88731C151.229 0.629446 152.753 0.000976562 154.541 0.000976562H177.351C179.172 0.000976562 180.713 0.629446 181.972 1.88731C183.231 3.14425 183.861 4.66697 183.861 6.45363V8.58821H178.444V7.19838C178.444 6.47024 178.311 5.99036 178.046 5.75872C177.815 5.49386 177.334 5.36189 176.606 5.36189H155.286C154.558 5.36189 154.061 5.49386 153.796 5.75872C153.564 5.99036 153.448 6.47024 153.448 7.19838V28.5433C153.448 29.2714 153.564 29.7679 153.796 30.0319C154.061 30.2644 154.558 30.3798 155.286 30.3798H176.606C177.334 30.3798 177.815 30.2644 178.046 30.0319C178.311 29.7679 178.444 29.2705 178.444 28.5433V21.5443H169.996V16.1335H183.861V29.288C183.861 31.0747 183.231 32.5974 181.972 33.8543C180.713 35.1122 179.172 35.7407 177.351 35.7407H154.541Z" fill="white"/>
<path fill-rule="evenodd" clip-rule="evenodd" d="M3.3095 52.989C2.27078 52.989 1.48317 52.7195 0.944816 52.1806C0.407386 51.6416 0.138672 50.9098 0.138672 49.9842V45.5701H1.43406V49.9408C1.43406 50.5305 1.59714 50.9975 1.92238 51.3389C2.24762 51.6813 2.71092 51.852 3.31043 51.852C3.90994 51.852 4.37139 51.6813 4.69292 51.3389C5.01445 50.9965 5.17568 50.5305 5.17568 49.9408V45.5701H6.47014V49.9731C6.47014 50.9052 6.20143 51.6416 5.664 52.1806C5.12657 52.7195 4.34174 52.989 3.31043 52.989H3.3095ZM14.3685 52.858H13.1287L9.31111 47.6567V52.858H8.02776V45.5701H9.34446L13.0852 50.6292V45.5701H14.3685V52.858ZM17.2104 52.858H15.927V45.5701H17.2104V52.858ZM21.7961 52.858H20.5128V46.6951H18.2964V45.5692H24.0126V46.6951H21.7961V52.858ZM30.1124 52.858H25.0986V45.5701H30.1124V46.696H26.3819V48.586H30.0355V49.7119H26.3819V51.733H30.1124V52.8589V52.858ZM34.1496 52.858H31.4291V45.5701H34.1496C35.2828 45.5701 36.2048 45.9088 36.9146 46.5862C37.6244 47.2636 37.9783 48.1412 37.9783 49.2191C37.9783 50.297 37.6253 51.1645 36.9192 51.8419C36.2131 52.5193 35.2902 52.858 34.1487 52.858H34.1496ZM34.1496 51.7321C34.9178 51.7321 35.5284 51.4921 35.9815 51.0113C36.4346 50.5305 36.6616 49.9334 36.6616 49.2191C36.6616 48.5048 36.4402 47.8791 35.9982 47.4057C35.5553 46.9323 34.9391 46.6951 34.1496 46.6951H32.7124V51.7321H34.1496ZM49.6405 52.858H48.3572V47.4491L46.1083 52.858H45.5598L43.322 47.4491V52.858H42.0387V45.5701H43.8493L45.835 50.3672L47.8318 45.5701H49.6424V52.858H49.6405ZM57.7807 52.858H56.3213L55.7839 51.4589H52.4268L51.8894 52.858H50.43L53.3043 45.5701H54.9064L57.7807 52.858ZM55.4216 50.3339L54.1049 46.8594L52.7882 50.3339H55.4216ZM61.7077 52.989C60.6106 52.989 59.696 52.6374 58.9649 51.9342C58.2338 51.231 57.8678 50.3265 57.8678 49.2191C57.8678 48.1117 58.2338 47.2063 58.9649 46.5041C59.696 45.8008 60.6106 45.4492 61.7077 45.4492C62.9799 45.4492 63.9602 45.9956 64.6478 47.0882L63.5507 47.6456C63.3681 47.3328 63.1096 47.0771 62.777 46.8806C62.4443 46.684 62.0876 46.5853 61.7077 46.5853C60.984 46.5853 60.3817 46.8326 59.9027 47.3282C59.4236 47.8237 59.1836 48.4541 59.1836 49.2182C59.1836 49.9823 59.4236 50.6136 59.9027 51.1082C60.3817 51.6038 60.9831 51.8511 61.7077 51.8511C62.095 51.8511 62.4536 51.7524 62.7825 51.5558C63.1115 51.3592 63.3672 51.1045 63.5507 50.7907L64.6478 51.3482C63.9454 52.4408 62.966 52.9872 61.7077 52.9872V52.989ZM72.0532 52.858H70.7698V49.6787H66.9634V52.858H65.68V45.5701H66.9634V48.5528H70.7698V45.5701H72.0532V52.858ZM74.8951 52.858H73.6117V45.5701H74.8951V52.858ZM82.7944 52.858H81.5546L77.737 47.6567V52.858H76.4536V45.5701H77.7703L81.511 50.6292V45.5701H82.7944V52.858ZM89.3658 52.858H84.352V45.5701H89.3658V46.696H85.6353V48.586H89.2889V49.7119H85.6353V51.733H89.3658V52.8589V52.858ZM97.1993 52.858H93.5022V45.5701H97.1002C97.7516 45.5701 98.2612 45.7464 98.6309 46.0998C99.0006 46.4533 99.185 46.8953 99.185 47.4278C99.185 47.8653 99.0627 48.2344 98.8172 48.5371C98.5725 48.8398 98.2705 49.0272 97.9119 49.1001C98.3066 49.1582 98.6411 49.3603 98.9154 49.7064C99.1897 50.0525 99.3268 50.4474 99.3268 50.8923C99.3268 51.4746 99.1387 51.948 98.7616 52.3125C98.3844 52.6771 97.8637 52.8589 97.1984 52.8589L97.1993 52.858ZM96.837 48.586C97.1585 48.586 97.4115 48.4984 97.594 48.3239C97.7766 48.1495 97.8683 47.9234 97.8683 47.6466C97.8683 47.3697 97.7766 47.1334 97.594 46.9581C97.4115 46.7837 97.1585 46.696 96.837 46.696H94.7855V48.586H96.837ZM96.8917 51.733C97.2429 51.733 97.5171 51.6435 97.7145 51.4654C97.9119 51.2872 98.011 51.0372 98.011 50.7169C98.011 50.4327 97.9119 50.1946 97.7145 50.0008C97.5171 49.8079 97.2429 49.711 96.8917 49.711H94.7855V51.7321H96.8917V51.733ZM103.781 52.9899C102.742 52.9899 101.955 52.7205 101.416 52.1815C100.879 51.6425 100.61 50.9107 100.61 49.9851V45.571H101.905V49.9417C101.905 50.5314 102.068 50.9984 102.393 51.3398C102.718 51.6822 103.181 51.853 103.781 51.853C104.38 51.853 104.842 51.6822 105.163 51.3398C105.485 50.9975 105.646 50.5314 105.646 49.9417V45.571H106.941V49.974C106.941 50.9061 106.672 51.6425 106.135 52.1815C105.597 52.7205 104.812 52.9899 103.781 52.9899ZM109.782 52.8589H108.498V45.571H109.782V52.8589ZM115.848 52.8589H111.339V45.571H112.623V51.7339H115.848V52.8598V52.8589ZM119.732 52.8589H117.011V45.571H119.732C120.865 45.571 121.787 45.9097 122.496 46.5871C123.206 47.2645 123.56 48.1421 123.56 49.22C123.56 50.2979 123.207 51.1654 122.501 51.8428C121.795 52.5202 120.872 52.8589 119.731 52.8589H119.732ZM119.732 51.733C120.5 51.733 121.11 51.493 121.563 51.0122C122.017 50.5314 122.244 49.9343 122.244 49.22C122.244 48.5057 122.022 47.88 121.58 47.4066C121.137 46.9332 120.521 46.696 119.732 46.696H118.294V51.733H119.732ZM129.814 52.8589H124.8V45.571H129.814V46.6969H126.083V48.5869H129.737V49.7128H126.083V51.7339H129.814V52.8598V52.8589ZM136.791 52.8589H135.31L133.687 50.1383H132.415V52.8589H131.131V45.571H134.346C135.063 45.571 135.64 45.7824 136.08 46.205C136.519 46.6277 136.737 47.1777 136.737 47.8551C136.737 48.467 136.569 48.957 136.232 49.3243C135.896 49.6925 135.487 49.9159 135.004 49.9962L136.792 52.8589H136.791ZM134.169 49.0124C134.535 49.0124 134.834 48.9072 135.069 48.6958C135.303 48.4845 135.42 48.204 135.42 47.8542C135.42 47.5044 135.303 47.2239 135.069 47.0125C134.834 46.8012 134.535 46.696 134.169 46.696H132.414V49.0124H134.169ZM140.521 52.9899C139.262 52.9899 138.272 52.6042 137.547 51.8317L138.261 50.848C138.89 51.518 139.662 51.853 140.575 51.853C141.066 51.853 141.433 51.7542 141.678 51.5576C141.923 51.3611 142.046 51.1276 142.046 50.8581C142.046 50.5886 141.9 50.3607 141.607 50.1973C141.314 50.0331 140.959 49.9039 140.543 49.8097C140.126 49.7147 139.707 49.6021 139.286 49.4711C138.866 49.34 138.509 49.1176 138.217 48.8047C137.924 48.4919 137.778 48.0877 137.778 47.5921C137.778 46.9802 138.024 46.4717 138.518 46.0675C139.012 45.6633 139.653 45.4612 140.444 45.4612C141.571 45.4612 142.484 45.7999 143.187 46.4773L142.452 47.4278C141.896 46.8741 141.19 46.5973 140.335 46.5973C139.955 46.5973 139.653 46.6794 139.429 46.8427C139.206 47.007 139.095 47.2267 139.095 47.5035C139.095 47.6853 139.173 47.8385 139.331 47.9622C139.489 48.0858 139.691 48.1864 139.94 48.263C140.188 48.3396 140.464 48.4144 140.768 48.4873C141.072 48.5602 141.375 48.6497 141.679 48.7549C141.983 48.8601 142.259 48.9902 142.507 49.1425C142.756 49.2957 142.959 49.507 143.116 49.7765C143.274 50.046 143.352 50.3662 143.352 50.7381C143.352 51.3934 143.114 51.9323 142.639 52.355C142.164 52.7777 141.458 52.989 140.522 52.989L140.521 52.9899ZM150.866 53.001C149.784 53.001 148.873 52.6512 148.135 51.9517C147.396 51.2522 147.026 50.3422 147.026 49.22C147.026 48.0978 147.396 47.1897 148.135 46.4939C148.873 45.7981 149.784 45.4501 150.866 45.4501C152.125 45.4501 153.108 45.9568 153.817 46.9692L152.764 47.5589C152.559 47.2746 152.29 47.0421 151.958 46.8594C151.625 46.6775 151.261 46.5862 150.866 46.5862C150.143 46.5862 149.54 46.8335 149.061 47.3291C148.582 47.8247 148.342 48.455 148.342 49.2191C148.342 49.9832 148.582 50.6163 149.061 51.1147C149.54 51.6139 150.142 51.8631 150.866 51.8631C151.21 51.8631 151.537 51.7976 151.848 51.6665C152.159 51.5355 152.41 51.3823 152.6 51.2079V50.0718H150.417V48.9469H153.883V51.6785C153.086 52.5599 152.08 53.001 150.866 53.001ZM160.883 52.8589H159.402L157.779 50.1383H156.506V52.8589H155.223V45.571H158.438C159.155 45.571 159.732 45.7824 160.171 46.205C160.61 46.6277 160.829 47.1777 160.829 47.8551C160.829 48.467 160.66 48.957 160.324 49.3243C159.988 49.6925 159.578 49.9159 159.095 49.9962L160.884 52.8589H160.883ZM158.261 49.0124C158.627 49.0124 158.926 48.9072 159.16 48.6958C159.395 48.4845 159.511 48.204 159.511 47.8542C159.511 47.5044 159.395 47.2239 159.16 47.0125C158.926 46.8012 158.627 46.696 158.261 46.696H156.506V49.0124H158.261ZM168.211 51.924C167.509 52.6346 166.613 52.989 165.523 52.989C164.434 52.989 163.538 52.6337 162.835 51.924C162.133 51.2134 161.782 50.3127 161.782 49.22C161.782 48.1274 162.133 47.2257 162.835 46.516C163.538 45.8054 164.434 45.4511 165.523 45.4511C166.613 45.4511 167.509 45.8064 168.211 46.516C168.914 47.2267 169.265 48.1274 169.265 49.22C169.265 50.3127 168.914 51.2143 168.211 51.924ZM165.523 51.853C166.247 51.853 166.833 51.6038 167.278 51.1045C167.724 50.6053 167.947 49.9768 167.947 49.22C167.947 48.4633 167.724 47.8247 167.278 47.33C166.832 46.8344 166.247 46.5871 165.523 46.5871C164.8 46.5871 164.205 46.8344 163.763 47.33C163.32 47.8256 163.099 48.4559 163.099 49.22C163.099 49.9842 163.321 50.6154 163.763 51.1101C164.206 51.6056 164.792 51.853 165.523 51.853ZM173.675 52.989C172.636 52.989 171.848 52.7195 171.31 52.1806C170.772 51.6416 170.504 50.9098 170.504 49.9842V45.5701H171.798V49.9408C171.798 50.5305 171.961 50.9975 172.287 51.3389C172.612 51.6813 173.075 51.852 173.675 51.852C174.274 51.852 174.736 51.6813 175.057 51.3389C175.379 50.9965 175.54 50.5305 175.54 49.9408V45.5701H176.834V49.9731C176.834 50.9052 176.566 51.6416 176.028 52.1806C175.491 52.7195 174.706 52.989 173.675 52.989ZM179.675 52.858H178.392V45.5701H181.606C182.345 45.5701 182.929 45.7888 183.356 46.2253C183.784 46.6628 183.998 47.2054 183.998 47.8533C183.998 48.5011 183.784 49.0355 183.356 49.4757C182.928 49.9168 182.345 50.1364 181.606 50.1364H179.675V52.857V52.858ZM181.43 49.0115C181.796 49.0115 182.096 48.9063 182.33 48.6949C182.564 48.4836 182.681 48.203 182.681 47.8533C182.681 47.5035 182.564 47.223 182.33 47.0116C182.096 46.8003 181.796 46.6951 181.43 46.6951H179.675V49.0115H181.43Z" fill="white"/>
</g>
<defs>
<clipPath id="clip0_4214_4431">
<rect width="184" height="53" fill="white"/>
</clipPath>
</defs>
</svg>
